<?xml version="1.0" standalone="no"?>
<!DOCTYPE svg PUBLIC "-//W3C//DTD SVG 20010904//EN"
 "http://www.w3.org/TR/2001/REC-SVG-20010904/DTD/svg10.dtd">
<svg version="1.0" xmlns="http://www.w3.org/2000/svg"
 width="701.000000pt" height="115.000000pt" viewBox="0 0 701.000000 115.000000"
 preserveAspectRatio="xMidYMid meet">

<g transform="translate(0.000000,115.000000) scale(0.100000,-0.100000)"
fill="#000000" stroke="none">
<path d="M3090 953 l0 -137 -35 34 c-19 19 -35 40 -35 47 0 10 -43 13 -206 13
l-206 0 -66 -60 -67 -60 -47 47 c-27 26 -48 53 -48 60 0 10 -30 13 -125 13
l-125 0 0 -215 c0 -184 -2 -215 -15 -215 -12 0 -15 19 -15 108 l0 107 -95 95
c-52 52 -95 100 -95 107 0 10 -32 13 -130 13 l-130 0 0 -111 0 -110 -108 110
-109 111 -286 0 -287 0 0 -47 0 -47 -35 34 c-19 19 -35 40 -35 47 0 10 -30 13
-130 13 l-130 0 0 -105 c0 -94 -2 -105 -18 -105 -22 0 -192 170 -192 193 0 15
-13 17 -130 17 l-130 0 0 -148 0 -149 120 -117 120 -118 0 -58 0 -58 108 -106
107 -106 113 0 112 0 0 110 0 110 44 0 c28 0 48 6 57 17 13 15 14 14 19 -8 3
-13 52 -70 111 -126 l105 -103 347 0 347 0 0 117 0 117 73 -70 c39 -38 95 -91
124 -117 l52 -47 197 0 196 0 66 60 66 61 61 -61 61 -60 193 0 193 0 77 71
c63 59 77 78 81 109 l5 38 120 -109 119 -109 138 0 138 0 0 67 0 67 68 -67 68
-67 112 0 112 0 0 110 c0 81 3 110 13 110 6 0 62 -50 122 -110 l110 -110 113
0 112 0 0 117 0 117 73 -70 c39 -38 95 -91 124 -117 l52 -47 176 0 175 0 0 67
0 67 68 -67 68 -67 117 0 117 0 0 90 0 90 33 0 c28 0 46 -13 122 -90 l90 -90
112 0 113 0 0 47 0 47 48 -47 48 -47 112 0 112 0 0 40 c0 22 4 40 8 40 4 0 26
-18 47 -40 l39 -40 113 0 113 0 0 42 0 42 43 -42 43 -42 112 0 112 0 0 256 0
256 -106 111 c-58 62 -135 140 -172 175 l-66 62 -363 0 -363 0 0 -117 0 -117
-35 34 c-19 19 -35 39 -35 45 0 6 -36 44 -79 83 l-80 72 -285 0 -286 0 0 -67
0 -67 -50 49 c-27 27 -50 57 -50 67 0 17 -17 18 -270 18 l-270 0 0 -111 0
-110 -108 110 -109 111 -286 0 -287 0 0 -67 0 -67 -55 54 c-30 30 -55 60 -55
67 0 7 -10 13 -21 13 -24 0 -179 145 -179 167 0 10 -28 13 -125 13 l-125 0 0
-137z m230 37 l0 -90 100 0 100 0 0 -100 0 -99 -97 -3 -98 -3 0 -115 0 -115
98 -3 97 -3 0 -99 0 -100 -128 0 -128 0 -77 71 -77 71 0 339 0 339 105 0 105
0 0 -90z m-3020 -200 l0 -110 125 0 125 0 0 110 0 110 110 0 110 0 0 -139 0
-139 -77 -71 c-70 -65 -80 -71 -120 -71 l-43 0 0 -110 0 -110 -105 0 -105 0 0
110 0 110 -44 0 c-41 0 -50 5 -120 71 l-76 71 0 139 0 139 110 0 110 0 0 -110z
m1189 38 l80 -73 1 -247 0 -248 -345 0 -345 0 0 320 0 320 265 0 265 0 79 -72z
m401 -148 l0 -221 128 3 127 3 3 218 2 217 105 0 105 0 0 -249 0 -249 -77 -71
-78 -71 -188 0 -188 0 -80 73 -79 72 0 248 0 247 110 0 110 0 0 -220z m1110
135 l0 -85 -155 0 -155 0 0 -45 0 -45 155 0 155 0 0 -119 0 -119 -79 -71 -79
-71 -186 0 -186 0 0 85 0 85 155 0 155 0 0 40 0 40 -155 0 -155 0 0 124 0 124
78 71 77 71 188 0 187 0 0 -85z m1279 13 l80 -73 1 -65 c0 -64 -1 -67 -40
-105 -22 -21 -40 -43 -40 -47 0 -4 18 -8 40 -8 l40 0 0 -135 0 -135 -110 0
-110 0 0 110 0 110 -130 0 -130 0 0 -110 0 -110 -105 0 -105 0 0 320 0 320
265 0 265 0 79 -72z m681 -13 l0 -85 -140 0 -140 0 0 -45 0 -45 140 0 140 0 0
-65 0 -65 -140 0 -140 0 0 -40 0 -40 140 0 140 0 0 -85 0 -85 -171 0 -170 0
-80 73 -79 72 0 248 0 247 250 0 250 0 0 -85z m753 14 l77 -71 0 -249 0 -249
-110 0 -110 0 0 90 0 90 -125 0 -125 0 0 -90 0 -90 -110 0 -110 0 0 320 0 320
268 0 267 0 78 -71z m956 -1 l80 -73 0 -247 1 -248 -110 0 -110 0 0 220 0 220
-50 0 -50 0 0 -220 0 -220 -110 0 -110 0 0 221 0 220 -47 -3 -48 -3 -3 -217
-2 -218 -105 0 -105 0 0 320 0 320 344 0 344 0 81 -72z m-3019 -415 l0 -78
-55 57 c-31 31 -55 65 -55 77 0 19 6 21 55 21 l55 0 0 -77z"/>
<path d="M1094 687 c-2 -7 -3 -60 -2 -118 l3 -104 128 -3 127 -3 0 121 0 120
-125 0 c-95 0 -127 -3 -131 -13z"/>
<path d="M3880 670 l0 -60 130 0 130 0 0 60 0 60 -130 0 -130 0 0 -60z"/>
<path d="M5320 635 l0 -65 125 0 125 0 0 65 0 65 -125 0 -125 0 0 -65z"/>
</g>
</svg>
